# xmcd
# 
# Track frame offsets:
#     150
#     14787
#     18576
#     32728
#     46504
#     66657
#     84781
#     108404
#     121383
#     139110
#     154969
#     169611
#     187216
#     223401
#     232550
#     258767
#     267208
# 
# Disc length: 3798
# 
# Revision: 2
# Processed by: cddbd v1.5.2PL0 Copyright (c) Steve Scherf et al.
# Submitted via: fre:ac v1.0.31
# 
DISCID=ea0ed411
DTITLE=Mike Bloomfield - From His Head To His Heart To His Hands Disc 3
DYEAR=2014
DGENRE=Blues
TTITLE0=I'm Glad I'm Jewish (Live)
TTITLE1=Men's Room - Spoken Word Segment from McCable's (Live)
TTITLE2=Don't You Lie To Me (Live)
TTITLE3=Can't Lose What You Ain't Never Had (Live)
TTITLE4=Gypsy Good Time (Live)
TTITLE5=One Good Man
TTITLE6=It's About Time (Live)
TTITLE7=Carmelita Skiffle (Live)
TTITLE8=Darktown Strutters Ball (Live)
TTITLE9=Don't Think About It Baby
TTITLE10=Jockey Blues, Old Folks Boogie (Live)
TTITLE11=A-Flat Boogaloo (Live)
TTITLE12=Glamour Girl (Live)
TTITLE13=Spoken Intro Bob Dylan (Live)
TTITLE14=The Groom's Still Waiting  at the Altar (Live)
TTITLE15=Hymn Time (Live Excerpt)
TTITLE16=Hidden Track
EXTD=
EXTT0=
EXTT1=
EXTT2=
EXTT3=
EXTT4=
EXTT5=
EXTT6=
EXTT7=
EXTT8=
EXTT9=
EXTT10=
EXTT11=
EXTT12=
EXTT13=
EXTT14=
EXTT15=
EXTT16=
PLAYORDER=
